<?xml version="1.0" encoding="UTF-8"?>
<!DOCTYPE svg PUBLIC "-//W3C//DTD SVG 1.1//EN" "http://www.w3.org/Graphics/SVG/1.1/DTD/svg11.dtd">
<!-- Creator: CorelDRAW 2018 (64-Bit) -->
<svg xmlns="http://www.w3.org/2000/svg" xml:space="preserve" width="4.26666in" height="2.4in" version="1.1" style="shape-rendering:geometricPrecision; text-rendering:geometricPrecision; image-rendering:optimizeQuality; fill-rule:evenodd; clip-rule:evenodd"
viewBox="0 0 4266.66 2400"
 xmlns:xlink="http://www.w3.org/1999/xlink">
 <defs>
  <style type="text/css">
   <![CDATA[
    .fil0 {fill:none}
    .fil3 {fill:#FEFEFE}
    .fil1 {fill:#FFCC29}
    .fil2 {fill:#3E4095}
   ]]>
  </style>
 </defs>
 <g id="Layer_x0020_1">
  <metadata id="CorelCorpID_0Corel-Layer"/>
  <rect class="fil0" x="-0.11" y="-0.1" width="4266.67" height="2400"/>
  <g id="_1557661887264">
   <path class="fil1" d="M2679.22 1168.62l27.45 2.46 -17.04 96.74 -28.78 -7.65c-6.9,23.68 -15.35,46.7 -25.24,68.95l29.08 12.11 -45.33 87.14 -28.41 -18.02c-13.5,20.29 -28.31,39.63 -44.3,57.91l26.84 22.62 -69.44 69.47 -23.62 -28.04c-18.7,15.3 -38.41,29.39 -59.03,42.17l20.1 31.7 -87.11 45.38 -14.76 -35.41c-22.2,9.06 -45.11,16.7 -68.64,22.82l9.96 37.49 -96.73 17.08 -3.5 -39.04c-11.75,1.02 -23.61,1.67 -35.55,1.94l0 209.7 -24.52 -0.06c0,-22.28 -31.89,-90.68 -66.98,-136.52 -33.44,-43.67 -89.26,-74.39 -117.78,-84.88 -78.76,-28.98 -149.51,-74.83 -207.79,-133.11 -103.75,-103.76 -168.09,-246.97 -168.11,-404.72l0 -0.07 0 -0.04c0.01,-157.77 64.36,-301 168.13,-404.78 103.76,-103.75 246.97,-168.09 404.72,-168.11l0.07 0 0.03 0c157.77,0.01 301,64.36 404.78,168.13 103.75,103.76 168.09,246.97 168.11,404.72l0 0.07 0 0.03c0,12.22 -0.41,24.33 -1.17,36.36l-23.18 0c-0.57,8.54 -1.32,17.02 -2.28,25.44zm-558.57 631.98l0 -190.69c-210.73,-5.78 -387.71,-154.94 -441.86,-355.77 -28.93,-9.32 -54.18,-21.54 -73.19,-34.63 22.14,103.41 74.05,196.01 146.3,268.27 52.48,52.49 115.7,94.26 186,121.67 23.24,9.06 48.13,22.51 68.52,35.09 60.37,37.24 94.41,87.5 114.22,156.08zm-405.51 -536.79c55.97,177.48 216.03,307.46 405.51,313.03l0 -150.02c0,-8.78 2.02,-17.17 4.57,-25.14 10.19,-31.77 39.12,-54.78 74.48,-69.67 33.97,-14.3 80.05,-21.25 114.56,-21.25 8.93,0 17.52,0.46 25.62,1.39 -8,-8.1 -19.5,-14.83 -34.44,-14.83l-30.77 0 -14.94 0 3.33 -14.59c1.19,-5.23 2.91,-14.47 -0.67,-21.36l0 -0.04c-3.61,-6.95 -13.51,-12.76 -36.86,-12.76l-104.87 0 0 -105.39 -525.74 0c48.84,71.09 142.19,112.11 221.82,127.44 -42.18,1.11 -61.55,0.63 -101.59,-6.81zm430.04 -70.52c3.31,-3.33 6.9,-6.55 10.75,-9.69 19.83,-16.16 46.81,-30.04 74.23,-40.43l-84.98 0 0 50.11zm158.89 -50.11c-40.22,5.07 -100.5,26.16 -136.13,55.19 -7.62,6.21 -14.02,12.75 -18.68,19.48 -1.57,2.27 -2.93,4.54 -4.07,6.84l0 0.03 74.41 0c34.47,0 50.73,11.7 58,25.69l0.02 -0.01c4.06,7.81 5.03,15.94 4.78,23.08l17.11 0c30,0 50.41,17.72 61.33,34.21 2.11,3.19 3.89,6.37 5.32,9.39 1.5,3.17 2.63,6.14 3.37,8.76l0.03 0.1 6.11 21.39 -21.21 -6.8c-12.15,-3.89 -28.2,-5.88 -46.12,-5.88 -31.8,0 -68.56,6.32 -99.4,19.29 -29.44,12.39 -53.26,30.71 -61.06,55.04 -1.76,5.51 -2.72,11.46 -2.72,17.87l0.03 144.31c123.07,-3.22 234.48,-54.69 315.94,-136.13 76.08,-76.08 126.02,-178.35 134.88,-291.82l-291.93 0zm-18.55 -475.33c45.75,57.59 81.04,123.64 103.33,194.15 28.94,-8.3 57.2,-17.95 84.5,-28.87 20.25,-8.1 40.01,-16.91 59.15,-26.39 11.88,-5.88 23.57,-12.06 35.04,-18.5 -16.3,-22.16 -34.22,-43.03 -53.63,-62.44 -38.1,-38.1 -81.86,-70.57 -129.87,-95.98 -7.24,3.64 -14.6,7.15 -22.12,10.51 -11.71,5.23 -23.57,10.04 -35.54,14.4 -13.42,4.89 -27.07,9.26 -40.86,13.12zm110.05 216.98c13.37,49.04 20.48,99.98 20.48,151.51 0,22.01 -1.27,47.87 -3.78,71.07l259.88 0c0,-0.2 0,-0.39 0,-0.59l0 -0.03 0 -0.07c-0.01,-110.4 -33.52,-213.24 -90.86,-298.88 -12.41,7.01 -25.17,13.76 -38.26,20.25 -19.65,9.72 -39.98,18.79 -60.83,27.13 -28,11.2 -56.97,21.09 -86.64,29.61zm-7.26 222.58c2.58,-22.8 3.88,-48.87 3.88,-71.07 0,-49.38 -6.82,-98.2 -19.64,-145.2 -73.19,19.03 -150.2,29.7 -227.38,30.73l0 185.54 243.13 0zm-22.5 -239.13c-22.52,-70.81 -58.74,-136.92 -105.81,-193.92 -37.79,8.72 -76.45,13.59 -114.83,14.45l0 209.19c74.94,-1.02 149.64,-11.34 220.64,-29.72zm-359.31 -194.74c-47.67,57.5 -84.27,124.3 -106.86,195.89 70.97,17.87 145.89,27.62 221,28.57l0 -209.21c-38.43,-0.93 -76.76,-6.25 -114.14,-15.25zm-113.57 218.8c-12.6,46.63 -19.31,95.05 -19.31,144 0,22.2 1.31,48.28 3.89,71.07l243.13 0 0 -185.55c-77.38,-0.96 -154.59,-11.04 -227.71,-29.53zm-39.39 215.08c-2.52,-23.2 -3.78,-49.07 -3.78,-71.07 0,-51.05 6.99,-101.53 20.11,-150.15 -6.03,-1.69 -12.01,-3.42 -17.93,-5.22 -60.12,-18.22 -116.94,-42.38 -168.15,-72.05 -56.9,85.43 -90.13,187.89 -90.14,297.83l0 0.04 0 0.07c0,0.19 0,0.37 0,0.55l259.88 0zm23.02 -244.13c22.4,-71.42 58.14,-138.3 104.57,-196.48 -1.44,-0.42 -2.91,-0.83 -4.38,-1.27 -32.37,-9.61 -63.8,-21.91 -93.68,-36.41 -48.51,25.52 -92.71,58.22 -131.15,96.65 -19.74,19.74 -37.94,40.98 -54.46,63.55 49.02,28.2 103.54,51.28 161.38,68.8 5.89,1.79 11.8,3.49 17.71,5.15zm34.03 -247.64c23.6,10.56 47.98,19.67 72.88,27.05 6.41,1.91 13.26,3.79 20.49,5.65 42.08,10.8 85.48,16.75 128.85,16.76l0.11 0c62.57,0 126.21,-11.19 185.35,-32.74 11.56,-4.22 22.91,-8.81 33.96,-13.74 1.59,-0.71 3.16,-1.44 4.75,-2.17 -68.3,-31.39 -144.18,-48.9 -224.03,-48.91l-0.03 0 -0.07 0c-79.15,0.01 -154.42,17.22 -222.25,48.1z"/>
   <path class="fil2" d="M1910.59 615.64c23.6,10.56 47.98,19.67 72.88,27.05 6.41,1.91 13.26,3.79 20.49,5.65 42.08,10.8 85.48,16.75 128.85,16.76l0.11 0c62.57,0 126.21,-11.19 185.35,-32.74 11.56,-4.22 22.91,-8.81 33.96,-13.74 1.59,-0.71 3.16,-1.44 4.75,-2.17 -68.3,-31.39 -144.18,-48.9 -224.03,-48.91l-0.03 0 -0.07 0c-79.15,0.01 -154.42,17.22 -222.25,48.1zm321.46 649.11c6.35,0 11.53,5.19 11.53,11.54 0,6.35 -5.18,11.53 -11.53,11.53 -6.35,0 -11.53,-5.18 -11.53,-11.53 0,-6.35 5.19,-11.54 11.53,-11.54zm-111.41 284.04l0 -121.97c0,-8.78 2.02,-17.17 4.57,-25.14 10.19,-31.77 39.12,-54.78 74.48,-69.67 33.97,-14.3 80.05,-21.25 114.56,-21.25 8.93,0 17.52,0.46 25.62,1.39 -8,-8.1 -19.5,-14.83 -34.44,-14.83l-30.77 0 -14.94 0 3.33 -14.59c1.19,-5.23 2.91,-14.47 -0.67,-21.36l0 -0.04c-3.61,-6.95 -13.51,-12.76 -36.86,-12.76l-104.87 0 0 -105.39 -525.74 0c48.84,71.09 142.19,112.11 221.82,127.44 -30.01,0.8 -48.5,0.76 -71.07,-2 55.96,159.31 202.42,274.77 374.99,280.17zm0 251.81l0 -190.69c-210.73,-5.78 -387.71,-154.94 -441.86,-355.77 -28.93,-9.32 -54.18,-21.54 -73.19,-34.63 22.14,103.41 74.05,196.01 146.3,268.27 52.48,52.49 115.7,94.26 186,121.67 23.24,9.06 48.13,22.51 68.52,35.09 60.37,37.24 94.41,87.5 114.22,156.08zm183.42 -657.43c-40.22,5.07 -100.5,26.16 -136.13,55.19 -7.62,6.21 -14.02,12.75 -18.68,19.48 -1.57,2.27 -2.93,4.54 -4.07,6.84l0 0.03 74.41 0c34.47,0 50.73,11.7 58,25.69l0.02 -0.01c4.06,7.81 5.03,15.94 4.78,23.08l17.11 0c30,0 50.41,17.72 61.33,34.21 2.11,3.19 3.89,6.37 5.32,9.39 1.5,3.17 2.63,6.14 3.37,8.76l0.03 0.1 6.11 21.39 -21.21 -6.8c-12.15,-3.89 -28.2,-5.88 -46.12,-5.88 -31.8,0 -68.56,6.32 -99.4,19.29 -29.44,12.39 -53.26,30.71 -61.06,55.04 -1.76,5.51 -2.72,11.46 -2.72,17.87l0.03 144.31c123.07,-3.22 234.48,-54.69 315.94,-136.13 76.08,-76.08 126.02,-178.35 134.88,-291.82l-291.93 0zm-18.55 -475.33c45.75,57.59 81.04,123.64 103.33,194.15 28.94,-8.3 57.2,-17.95 84.5,-28.87 20.25,-8.1 40.01,-16.91 59.15,-26.39 11.88,-5.88 23.57,-12.06 35.04,-18.5 -16.3,-22.16 -34.22,-43.03 -53.63,-62.44 -38.1,-38.1 -81.86,-70.57 -129.87,-95.98 -7.24,3.64 -14.6,7.15 -22.12,10.51 -11.71,5.23 -23.57,10.04 -35.54,14.4 -13.42,4.89 -27.07,9.26 -40.86,13.12zm110.05 216.98c13.37,49.04 20.48,99.98 20.48,151.51 0,22.01 -1.27,47.87 -3.78,71.07l259.88 0c0,-0.2 0,-0.39 0,-0.59l0 -0.03 0 -0.07c-0.01,-110.4 -33.52,-213.24 -90.86,-298.88 -12.41,7.01 -25.17,13.76 -38.26,20.25 -19.65,9.72 -39.98,18.79 -60.83,27.13 -28,11.2 -56.97,21.09 -86.64,29.61zm-7.26 222.58c2.58,-22.8 3.88,-48.87 3.88,-71.07 0,-49.38 -6.82,-98.2 -19.64,-145.2 -73.19,19.03 -150.2,29.7 -227.38,30.73l0 185.54 243.13 0zm-22.5 -239.13c-22.52,-70.81 -58.74,-136.92 -105.81,-193.92 -37.79,8.72 -76.45,13.59 -114.83,14.45l0 209.19c74.94,-1.02 149.64,-11.34 220.64,-29.72zm-359.31 -194.74c-47.67,57.5 -84.27,124.3 -106.86,195.89 70.97,17.87 145.89,27.62 221,28.57l0 -209.21c-38.43,-0.93 -76.76,-6.25 -114.14,-15.25zm-113.57 218.8c-12.6,46.63 -19.31,95.05 -19.31,144 0,22.2 1.31,48.28 3.89,71.07l243.13 0 0 -185.55c-77.38,-0.96 -154.59,-11.04 -227.71,-29.53zm-39.39 215.08c-2.52,-23.2 -3.78,-49.07 -3.78,-71.07 0,-51.05 6.99,-101.53 20.11,-150.15 -6.03,-1.69 -12.01,-3.42 -17.93,-5.22 -60.12,-18.22 -116.94,-42.38 -168.15,-72.05 -56.9,85.43 -90.13,187.89 -90.14,297.83l0 0.04 0 0.07c0,0.19 0,0.37 0,0.55l259.88 0zm23.02 -244.13c22.4,-71.42 58.14,-138.3 104.57,-196.48 -1.44,-0.42 -2.91,-0.83 -4.38,-1.27 -32.37,-9.61 -63.8,-21.91 -93.68,-36.41 -48.51,25.52 -92.71,58.22 -131.15,96.65 -19.74,19.74 -37.94,40.98 -54.46,63.55 49.02,28.2 103.54,51.28 161.38,68.8 5.89,1.79 11.8,3.49 17.71,5.15z"/>
   <path class="fil3" d="M1715.14 1263.81c55.97,177.48 216.03,307.46 405.51,313.03l0 -28.05c-172.57,-5.41 -319.02,-120.86 -374.99,-280.17 -9.15,-1.12 -18.96,-2.66 -30.52,-4.81zm516.92 0.94c6.35,0 11.53,5.19 11.53,11.54 0,6.35 -5.18,11.53 -11.53,11.53 -6.35,0 -11.53,-5.18 -11.53,-11.53 0,-6.35 5.19,-11.54 11.53,-11.54zm-86.88 -71.46c3.31,-3.33 6.9,-6.55 10.75,-9.69 19.83,-16.16 46.81,-30.04 74.23,-40.43l-84.98 0 0 50.11z"/>
  </g>
 </g>
</svg>
